<?xml version="1.0" encoding="utf-8"?>
<!-- Generator: Adobe Illustrator 22.1.0, SVG Export Plug-In . SVG Version: 6.00 Build 0)  -->
<svg version="1.1" id="Warstwa_1" xmlns="http://www.w3.org/2000/svg" xmlns:xlink="http://www.w3.org/1999/xlink" x="0px" y="0px"
	 viewBox="0 0 143 23" style="enable-background:new 0 0 143 23;" xml:space="preserve">
<style type="text/css">
	.st0{fill:#FF5A00;}
	.st1{fill:#FFFFFF;}
</style>
<path class="st0" d="M135.7,1.7c-4,0-7.3,3.5-7.3,7.6c0,5.5,7.3,12.5,7.3,12.5s7.3-7,7.3-12.5C143,5.1,139.7,1.7,135.7,1.7"/>
<path class="st1" d="M135.7,13.5c-1.1,0-2,0.9-2,2c0,1.1,0.9,2,2,2c1.1,0,2-0.9,2-2C137.7,14.4,136.8,13.5,135.7,13.5"/>
<polygon class="st1" points="134.2,12.1 137.2,12.1 138.6,5.4 132.8,5.4 "/>
<path class="st1" d="M93.3,7.4v8.7c0,0.8-0.6,1.4-1.4,1.4c-0.8,0-1.4-0.6-1.4-1.4V9.8l-2.3,4.7c-0.2,0.4-0.6,0.7-1.1,0.7
	c-0.5,0-0.9-0.3-1.1-0.7l-2.3-4.7v6.2c0,0.8-0.6,1.4-1.4,1.4c-0.8,0-1.4-0.6-1.4-1.4V7.4c0-1.1,0.9-2,2-2h0c0.8,0,1.4,0.4,1.8,1.1
	l2.5,4.8l2.5-4.8c0.3-0.7,1-1.1,1.8-1.1C92.4,5.4,93.3,6.3,93.3,7.4"/>
<path class="st1" d="M105.3,15.6L102,6.8c-0.3-0.9-1.2-1.4-2.1-1.4c-0.9,0-1.8,0.6-2.1,1.4l-3.3,8.8c-0.4,0.9,0.3,1.9,1.3,1.9
	c0.6,0,1.1-0.4,1.3-1l0.6-1.9h4.2l0.6,1.9c0.2,0.6,0.7,1,1.3,1C105,17.5,105.7,16.5,105.3,15.6 M98.7,12.1l1.2-3.5l1.2,3.5H98.7z"/>
<path class="st1" d="M125.7,5.4h-7.4c-0.7,0-1.3,0.6-1.3,1.3c0,0.7,0.6,1.3,1.3,1.3h2.2V16c0,0.8,0.6,1.4,1.4,1.4
	c0.8,0,1.4-0.6,1.4-1.4V7.9h2.3c0.7,0,1.3-0.6,1.3-1.3C127,5.9,126.4,5.4,125.7,5.4"/>
<path class="st1" d="M75.2,10.1c-2.4-0.5-2.8-0.9-2.8-1.4c0-0.6,0.7-1.1,1.9-1.1c1,0,1.8,0.3,2.5,0.7c0.3,0.2,0.6,0.2,0.9,0.2
	c0.4,0,0.9-0.4,1-0.8c0.2-0.6,0-1.1-0.5-1.4c-1-0.8-2.5-1.1-4-1.1c-2.8,0-4.7,1.6-4.7,3.8c0,1.9,1.4,3.1,4.4,3.7
	c2,0.4,2.3,0.8,2.3,1.3c0,0.7-0.7,1.3-1.9,1.3c-1,0-2-0.4-2.9-1c-0.3-0.2-0.6-0.3-1-0.3c-0.6,0.1-1,0.5-1.1,1.1
	c-0.1,0.4,0.1,0.9,0.5,1.1c1.2,1,2.8,1.6,4.6,1.6c2.8,0,4.8-1.6,4.8-4C79.2,11.8,78,10.7,75.2,10.1"/>
<path class="st1" d="M114.3,12.9c2.3-0.8,2.2-3.6,2.2-3.6c0-2.5-1.3-4-4.3-4h-4c-0.9,0-1.6,0.7-1.6,1.6v9.1c0,0.8,0.6,1.4,1.4,1.4
	c0.8,0,1.4-0.6,1.4-1.4v-2.8h1.6l2.8,3.7c0.3,0.4,0.7,0.6,1.1,0.5c1.1,0,1.7-1.3,1-2.1L114.3,12.9z M112,10.7h-2.4V7.9h2.3
	c1.1,0,1.6,0.5,1.6,1.4C113.5,10.2,113,10.7,112,10.7"/>
<path class="st0" d="M60.4,17.4c1.9,0,3.7-0.8,4.8-2.3c0.8-1.1,1.1-2.4,1.1-3.7c0-1.3-0.4-2.6-1.1-3.7c-1.1-1.5-2.9-2.3-4.8-2.3
	c-1.9,0-3.7,0.8-4.8,2.3c-0.8,1.1-1.1,2.4-1.1,3.7c0,1.3,0.4,2.6,1.1,3.7C56.8,16.6,58.5,17.4,60.4,17.4 M57.5,10
	C58,8.7,59,7.6,60.4,7.6c1.4,0,2.5,1,2.9,2.3c0.1,0.4,0.2,0.9,0.2,1.4c0,0.5-0.1,1-0.2,1.4c-0.4,1.3-1.5,2.3-2.9,2.3
	c-1.4,0-2.5-1-2.9-2.3c-0.1-0.4-0.2-0.9-0.2-1.4C57.3,10.9,57.4,10.4,57.5,10"/>
<path class="st0" d="M17.4,17.4h2c0.2,0,0.3-0.2,0.3-0.3V0.7c0-0.2-0.2-0.3-0.3-0.3h-2c-0.2,0-0.3,0.2-0.3,0.3v16.4
	C17,17.3,17.2,17.4,17.4,17.4"/>
<path class="st0" d="M12.7,17.4h2c0.2,0,0.3-0.2,0.3-0.3V0.7c0-0.2-0.2-0.3-0.3-0.3h-2c-0.2,0-0.3,0.2-0.3,0.3v16.4
	C12.3,17.3,12.5,17.4,12.7,17.4"/>
<path class="st0" d="M47.6,17.4h2c0.2,0,0.3-0.2,0.3-0.3l0-6.7c0-2.1,1.4-3.1,3.6-2.6C53.8,7.9,54,7.7,54,7.4V6c0-0.4,0-0.5-0.3-0.6
	h0c-0.4-0.1-1.2-0.1-1.4-0.1c-1.4,0-2.7,0.6-3.6,1.5c-0.7,0.7-1.5,1.7-1.5,3.5v6.9C47.3,17.3,47.4,17.4,47.6,17.4"/>
<path class="st0" d="M39.6,17.4c1.2,0,2.4-0.4,3.4-1v1.5c0,2-1.7,2.3-2.8,2.4c-0.7,0-1.8-0.1-2.3-0.1c-0.3,0-0.5,0-0.5,0.3v1.8
	c0,0.1,0.1,0.3,0.3,0.3c2.6,0.2,4.3,0.2,5.6-0.6c0.9-0.5,1.6-1.4,1.9-2.4c0.2-0.7,0.3-1.6,0.3-2.4v-5.7c0-1.3-0.4-2.6-1.1-3.7
	c-1.1-1.5-2.9-2.3-4.8-2.3c-1.9,0-3.7,0.8-4.8,2.3c-1.5,2.1-1.5,5.3,0,7.4C35.9,16.6,37.7,17.4,39.6,17.4 M36.7,10
	c0.4-1.3,1.5-2.3,2.9-2.3c3.2,0,3.3,3.3,3.3,3.7c0,0.5-0.1,3.7-3.3,3.7c-1.4,0-2.5-1-2.9-2.3c-0.1-0.4-0.2-0.9-0.2-1.4
	C36.5,10.9,36.6,10.4,36.7,10"/>
<path class="st0" d="M27.2,17.4c1.9,0.1,3.2-0.3,4.1-0.8c0.2-0.1,0.2-0.2,0.2-0.6v-1.5c0-0.3-0.2-0.5-0.5-0.3
	c-1,0.7-2.3,1.1-3.9,0.9c-1.6-0.1-2.9-1.2-3-2.8H32c0.2,0,0.3-0.1,0.3-0.3c0.1-2.2-0.5-6.7-5.3-6.7c-3.5,0-5.1,2.4-5.6,4.4
	c-0.1,0.5-0.2,1.1-0.2,1.7c0,1.3,0.4,2.6,1.1,3.7C23.5,16.6,25.3,17.3,27.2,17.4 M27,7.6c1.2,0,2.5,0.7,2.5,2.6h-5.4
	C24.2,9.3,24.9,7.6,27,7.6"/>
<path class="st0" d="M1.2,16.6C2,17.2,3,17.4,4.3,17.4h0.9l4.9,0c0.2,0,0.3-0.2,0.3-0.3l0-3.4l0-3.6c0-1.6-0.4-2.8-1.1-3.6
	C8.6,5.7,7.1,5.3,5.7,5.3c-1.4,0-2.9,0.4-4.1,1.1c-0.1,0-0.1,0.1-0.1,0.2v0l0.1,1.7c0,0.2,0.3,0.3,0.5,0.2C3.9,7.5,6,7.3,7,7.8
	C7.8,8.2,8,9,8,9.5v0.3H5.1c-1.2,0-5.1,0.4-5.1,4v0v0v0C0,14.9,0.4,15.9,1.2,16.6 M5.2,11.8H8v1.9v1.6H5.3H4.5
	c-0.5,0-0.9-0.1-1.2-0.4c-0.4-0.3-0.6-0.7-0.6-1.1c0,0,0,0,0,0C2.7,13.1,3.1,11.8,5.2,11.8"/>
</svg>
